<?xml version="1.0" encoding="UTF-8"?>
<!DOCTYPE svg PUBLIC "-//W3C//DTD SVG 1.1//EN" "http://www.w3.org/Graphics/SVG/1.1/DTD/svg11.dtd">
<!-- Creator: CorelDRAW 2018 (64 Bit Versão de avaliação) -->
<svg xmlns="http://www.w3.org/2000/svg" xml:space="preserve" width="100mm" height="100mm" version="1.1" style="shape-rendering:geometricPrecision; text-rendering:geometricPrecision; image-rendering:optimizeQuality; fill-rule:evenodd; clip-rule:evenodd"
viewBox="0 0 10000 10000"
 xmlns:xlink="http://www.w3.org/1999/xlink">
 <defs>
  <style type="text/css">
   <![CDATA[
    .fil10 {fill:#011880}
    .fil4 {fill:#0173B6}
    .fil3 {fill:#0192D1}
    .fil2 {fill:#03AEE2}
    .fil11 {fill:#091777}
    .fil0 {fill:#354D97}
    .fil8 {fill:#3D54A0}
    .fil1 {fill:#5ABCE2}
    .fil5 {fill:#6974B2}
    .fil9 {fill:#B4131A}
    .fil7 {fill:#DA2C56}
    .fil6 {fill:#DD447D}
   ]]>
  </style>
 </defs>
 <g id="Camada_x0020_1">
  <metadata id="CorelCorpID_0Corel-Layer"/>
  <g id="_957456068240">
   <path class="fil0" d="M759.24 5630.33l6.38 -20.34c94.01,-8 150.87,-24.2 228.78,-40.84l914.29 -153.61c142.12,-23.9 490.72,-96.08 617.4,-110.8 40.02,-4.65 34.9,-8.53 54.37,11.28 -19.22,-364.68 -29.79,-667.13 73.52,-1030.95 55.75,-196.34 143.11,-446.86 239.46,-613.1 20.98,-36.2 95.8,-150.49 103.02,-178.44l-1.14 -25.87c-65.34,-26.24 -317.95,-179.41 -402.73,-227.6l-798.9 -460.25c-72.41,-43.23 -128.27,-74.89 -196.23,-114.22 -38.08,-22.03 -165.72,-108.1 -195.34,-101.4 -63.93,95.49 -113.05,200.16 -172.5,300.63 -59.48,100.53 -102.17,222.61 -152.32,326.32 -195.69,404.66 -328.51,1085.15 -360.57,1537.52 -15.57,219.63 -3.54,687.88 42.51,901.67z"/>
   <path class="fil1" d="M4121.81 7514.04l120.15 60.31c7.08,2.99 31.26,11.61 31.37,11.67 22.86,10.15 11.75,2.79 28.58,17.12 -6.35,82.59 -256.88,707.8 -306.24,854.89 -49.14,146.46 -102.28,285.22 -156.28,423.78 -55.02,141.16 -98.88,278.88 -157.94,421.35 -11.48,-1.65 -22.78,-4.48 -33.86,-7.95l58.2 30.06c63.6,16.37 132.75,50.51 177.52,59.67 76.27,15.6 148.6,44.8 222.68,67.84 44.86,13.95 86.76,29.68 126.23,47.35 54.16,13.22 108.1,25.94 162.53,38.11 36.58,8.17 85.68,12.36 129.86,20.62 115.54,21.6 755.85,102.97 794.43,64.92 17.68,-17.44 17.68,-1837.01 0,-1854.44 -23.96,-11.34 -266.11,-16.48 -313.18,-23.5 -276.7,-41.29 -565.67,-104.53 -804.17,-221.52l-68.48 -33.45 -11.4 23.17z"/>
   <path class="fil2" d="M2284.1 8446.13c29.03,37.1 265.95,222.85 308.87,255.29 53.24,40.27 111.9,75.23 167.18,116.63 8.76,6.55 39.54,30.14 40.37,30.67l790.44 413.63c32.33,12.1 68.45,30.69 106.4,36.23 59.06,-144.45 102.92,-284.07 157.94,-427.2 54,-140.47 107.14,-281.15 156.28,-429.65 49.36,-149.12 299.89,-783 306.23,-866.73 -16.82,-14.54 -5.71,-7.07 -28.57,-17.37 -0.11,-0.05 -24.29,-8.79 -31.37,-11.83l-364.36 -185.4c-1.9,-0.99 -4.2,-2.1 -6.1,-3.1 -128.68,-67.59 -312.95,-223.62 -423.69,-316.82 -0.22,0.52 -130.43,151.49 -144.54,168.24l-448.83 535.62c-27.78,29.81 -50.78,58.73 -76.35,92.21 -22.63,29.62 -48.48,54.25 -74.28,85.28 -51.26,61.65 -100.69,119.64 -149.87,178.09l-285.75 346.21z"/>
   <path class="fil3" d="M1264.21 7162.88c14.52,50.8 183.78,317.56 212.26,360.77 124.55,188.96 208.6,293.49 343.72,453.49 77.21,91.42 230.88,265.57 313.51,333.47 56.27,46.24 84.62,93.73 150.4,135.52l285.75 -346.21c49.18,-58.45 98.61,-116.44 149.87,-178.09 25.8,-31.03 51.65,-55.66 74.28,-85.28 25.57,-33.48 48.57,-62.4 76.35,-92.21l448.83 -535.62c14.11,-16.75 144.32,-167.72 144.54,-168.24 -15.37,-20.79 -66.6,-59.86 -90.89,-84.09l-168.12 -187.37c-80.18,-80.74 -324.29,-451.7 -346.63,-532.15 -57.59,38.49 -132.22,78.32 -200.55,115.02l-1393.32 810.99z"/>
   <path class="fil4" d="M759.24 5630.33c31.81,257.36 105.45,596.64 195.93,829.19 45.36,116.64 86.96,251.49 140.46,364.5 15.14,32 141.23,316.77 168.58,338.86l1393.32 -810.99c68.33,-36.7 142.96,-76.53 200.55,-115.02 -76.62,-180.17 -99.3,-189.01 -174.42,-430.25 -79.24,-254.52 -63.02,-324.93 -103.2,-490.6 -19.47,-19.81 -14.35,-15.93 -54.37,-11.28 -126.68,14.72 -475.28,86.9 -617.4,110.8l-914.29 153.61c-77.91,16.64 -134.77,32.84 -228.78,40.84l-6.38 20.34z"/>
   <path class="fil5" d="M1402.12 2564.19c29.62,-6.7 157.26,79.37 195.34,101.4 67.96,39.33 123.82,70.99 196.23,114.22l798.9 460.25c84.78,48.19 337.39,201.36 402.73,227.6l1.14 25.87 265.98 -341.17c73.79,-89.78 167.8,-164.02 213.21,-212.96l115.12 -97.54c11.23,-8.62 11.72,-11.3 23.95,-20.23 30.97,-22.56 22.32,-2.39 46.4,-35.69 -54.85,-2.26 -34.85,-15.8 -92.11,-78.82l-892.49 -1075.94c-47.31,-45.45 -210.17,-210.76 -215.07,-269.87l-229.53 201.73c-151.65,144.58 -275.88,261.44 -414.66,427.48l-127.24 156.7c-21.37,28.48 -45.12,47.48 -64.65,77.15 -45.68,69.37 -207.56,290.34 -223.25,339.82z"/>
   <path class="fil6" d="M3769.27 640.16c45.55,-2.69 33.75,-4.88 65.83,80.72 12.62,33.69 28.31,73.96 40.55,108.7l481.62 1318.72c19.82,53.89 77.64,184.87 54.76,234.57 155.88,-38.82 191.61,-64.35 406.96,-109.9 68.75,-14.55 369.11,-52.17 444.64,-44.28l27.39 7.4 35.22 0c13.9,-122.7 5.2,-1714.05 4.19,-1867.93 -247.92,-10.76 -620.2,24.56 -839.8,72.54 -266.89,58.32 -289.54,60.55 -546.39,136.35l-128.94 39.42c-9.16,2.9 -13.24,3.86 -20.26,7.2 -24.74,11.74 -13.59,6.21 -25.77,16.49z"/>
   <path class="fil7" d="M2461.45 1361.31c4.9,59.11 167.76,224.42 215.07,269.87l892.49 1075.94c57.26,63.02 37.26,76.56 92.11,78.82 56.41,-32.62 107.46,-77.44 166.2,-114.87 61.75,-39.34 121.78,-74.75 183.01,-109.61 130.2,-74.15 263.54,-117.47 401.7,-178.59 22.88,-49.7 -34.94,-180.68 -54.76,-234.57l-481.62 -1318.72c-12.24,-34.74 -27.93,-75.01 -40.55,-108.7 -32.08,-85.6 -20.28,-83.41 -65.83,-80.72 -90.38,3 -608.96,260.33 -700.9,313.46 -213.39,123.28 -273.41,162.52 -462.07,300.63 -49.06,35.91 -95.32,75.53 -144.85,107.06z"/>
   <path class="fil8" d="M827.43 4041.82c25.42,-16.63 175.09,19.41 218.46,26.76 77.42,13.09 140.82,23.24 223.77,38.45l909.36 152.1c96.28,15.53 386.48,70.78 456.88,72.53l10.1 23.85 130.01 -412.6c37.77,-109.91 99.92,-212.32 125.36,-274.04l73.78 -131.62c7.52,-12 7.03,-14.68 15.38,-27.32 21.13,-31.96 20.08,-10.04 31,-49.65 -52.18,17.04 -38.18,-2.63 -113.85,-41.67l-1212.17 -696.28c-60.21,-26.06 -270.57,-124.04 -295.81,-177.71l-144.58 269.21c-91.57,188.46 -167.14,341.36 -239.16,545.42l-64.47 191.29c-10.07,34.14 -25.68,60.24 -33.62,94.87 -18.55,80.96 -93.03,344.56 -90.44,396.41z"/>
   <path class="fil9" d="M6847.88 6266.1c-57.87,0 -93.63,-27.38 -93.63,-93.63 0,-153.56 104.63,-530.61 280.91,-530.61 154.79,0 -9.67,624.24 -187.28,624.24zm1030.01 -260.09c0,-120.89 25.61,-244.58 97.87,-328.7 28.19,-32.83 52.14,-35.45 110.21,-35.45 40.95,175.74 -34.71,323.76 -208.08,364.15zm-1924.77 -124.85c0,306.11 83.24,287.63 83.24,353.74 0,68.74 -239.29,225.84 -239.29,-114.44 0,-146.81 40.55,-344.14 132.24,-440 40.04,-41.84 59.83,-59.42 138.27,-59.42 -28.6,42.71 -47.8,62.33 -73.2,114.09 -14.19,28.92 -41.26,103.53 -41.26,146.03zm2809.13 -197.68c1.15,-51.98 19.65,-83.28 20.8,-135.25l72.84 0c-20.83,39.34 -59.8,112.58 -93.64,135.25zm-4265.7 353.74c0,-61.65 21.39,-182.43 20.94,-259.97l-0.38 -583.01c-0.36,-87.24 17.98,-165.47 20.72,-249.78 -5.83,-30.66 -22.07,-62.72 -29.41,-86.6 -40.47,-14.27 -93.41,-2.06 -136.66,3.76 -86.3,11.61 -60.69,26.32 -114.51,62.35l0 -2.41c-4.46,3.19 -9.3,6.25 -14.5,8.98 0.27,59.87 -3.7,66.99 -45.69,130.86 -75.02,114.11 -145.54,318.94 -162.16,467.75 -10.52,163.9 -180.79,770.81 -358.49,822.21 -209.21,60.52 -42.43,-352.5 -255.52,-172.26 -268.95,227.49 125.17,477.53 384.08,186.26 207.69,-233.66 232.79,-621.69 317.61,-839.97l81.72 4.11c28.68,135.44 -56.56,963.26 -55.3,967.6 48.88,8.23 91.74,-4.94 128.35,18.71 88.15,0 155,-100.97 202.59,-172.67 58.09,-87.52 89.84,-160.33 134.61,-260.74 40.66,-91.24 74.92,-183.18 110.99,-273.97 18.97,-47.72 34.85,-92.66 54.9,-142.78 10.26,-25.6 18.56,-46.44 26.41,-67.22 15.93,-42.14 15.94,-50.65 43.44,-60.62 34.04,32.3 3.28,82.46 -18.25,189.84 -43.05,214.55 -66.57,505.75 28.77,673.6 129.01,227.15 353.75,102.41 499.38,-10.19 48.48,-37.49 88.33,-93.58 135.16,-124.96 15.27,183.54 258,401.19 569.26,142.7 33.09,-27.47 43.06,-46.91 65.38,-80.26 168.07,39.15 166.51,55.89 312.13,-41.62 16.25,33.88 18.11,61.66 39.17,96.09 53.99,88.22 143.07,178.94 264.55,132.8 8.84,-20.21 3.77,-20.47 50.78,-42.54 175.31,-82.28 193.45,-198.92 267.8,-256.37 36.03,396.86 197.52,321.54 398.8,154.72 28.94,-23.99 43.13,-39.47 69.21,-66.03 24.24,-24.69 40.32,-50.8 74.96,-62.53 53.14,102.77 43.35,137.74 130.15,204.82 62.3,48.17 171.22,62.8 268.5,49.58 200.38,-27.21 301.86,-196.77 405.63,-257.63 27.43,207.11 172.19,324.43 390.98,232.09 79.99,-33.77 141.13,-84.84 199.26,-132.79 139.75,-115.31 121.22,-110.11 117.65,-221.78l-91.68 71.24c-245.4,218.1 -375.23,155.45 -347.6,-183.23 5.16,-63.32 17.12,-68.18 49.7,-104.11 162.57,-179.26 470.97,-669 342.56,-993.64 -9.46,-18.32 -6.8,-13.14 -15.53,-27.22 -94.5,-6.34 -118.72,21.88 -185.8,46.85l-164.54 73.06c-1.93,9.16 -5.05,26.95 -8.39,34.62 -15.61,35.7 -7.22,16.46 -19.62,30.87 1.22,44.05 -62.92,172.13 -81.03,224.8 -28.12,81.77 -61.01,150.99 -77.72,239.8l-80.55 329.5c-46.18,207.78 6.25,223.92 -97.46,308.57 -67.51,55.09 -124.16,149.55 -266.47,146.37 -121.22,-2.72 -202.88,-89.26 -211.42,-204.78 55.45,-47.74 561.26,-154.77 448.95,-457.71 -88.89,-239.77 -529.91,-115.28 -662.92,260.04 -69.36,195.7 26.18,124.55 -151.39,307.6 -29.94,30.88 -91.89,97.54 -149.87,55.74 -64.88,-46.77 -4,-291.69 12.55,-380.78 14.3,-76.96 46.93,-333.01 89.76,-367.58 3.19,-61.35 17.42,-116.54 30.91,-168 173.09,-659.81 115.48,-466.79 -169.43,-452.04l-147.25 679.63c-82.31,-28.87 -68.74,-64.93 -193.05,-52.97 -164.84,15.87 -307.5,144.41 -390.48,278.3 -139.89,225.69 -66.85,307.78 -237.89,439.14 -54.33,41.73 -120.67,18.12 -162.29,-26.93 -2.35,-48.64 70.43,-278.69 83.48,-364.4 50.7,-332.98 -22.2,-274.53 -81.21,-328.33l-200.16 -0.14 6.62 10.26c-241.39,35.01 -431.38,253.23 -472.06,468.33 -24,126.95 0.53,71.02 -38.77,114.39 -74.74,82.46 -173.8,197.47 -278.69,164.68 -182.62,-57.08 -43.78,-686.54 -16.78,-761.99l0 -24.04c2.92,-116.18 90.21,-225.15 102.8,-339.53 11.25,-102.07 81.34,-205.6 79.15,-280.2l-76.49 -7.11c-102.73,4.61 -142.22,2.94 -201.31,56.55 -29.07,26.34 -90.93,85.02 -117.06,121.5 -39.67,55.4 -66.92,94.53 -100.71,149.86 -56.13,91.93 -49.79,124.01 -92.97,148.79 -2.52,-2.62 -5.11,-5.63 -7.75,-8.97 -2.96,14.89 -9.17,28.16 -17.7,39.42 -2.29,36.56 -22.41,75.04 -57.51,154.53 -23.82,53.99 -42.72,106.38 -64.25,164.64 -19.68,53.31 -44.22,104.64 -64.89,164.01 -11.48,32.94 -17.34,54.97 -28.67,85.78l-27.36 66.27c-7.57,13.45 -5.83,10.45 -12.77,18.43zm4284.25 -507.45c6.86,-87.67 50.33,-197.6 78.03,-289.49 17.15,-56.95 63.34,-218.57 130.4,-219.56 45.64,72.09 0.22,247.26 -29.39,318.46 -87.39,210.1 -39.84,196.56 -179.04,190.59z"/>
   <path class="fil10" d="M4034.89 5529.16c16.63,-148.82 87.15,-353.66 162.18,-467.77 51.19,-77.86 45.86,-71.34 45.23,-179.03 -0.79,-137.61 -1.76,-270.91 -12.29,-405.93 -3.07,-39.38 -44.18,-352.07 -24.78,-381.81 87.08,185.06 160.34,400.53 273.15,638.24 50.24,105.87 96.18,205.2 146.26,311.53 36.39,77.25 105.58,259.72 152.82,308.72 43.17,-24.78 36.84,-56.87 92.95,-148.79 33.8,-55.34 61.05,-94.46 100.72,-149.86 26.13,-36.48 87.99,-95.16 117.05,-121.51 59.1,-53.6 98.59,-51.93 201.32,-56.53l-3.58 -1395.73 -394.28 -3.71c-20.67,255.89 -4.48,820.57 17.01,1103.57 8.22,108.3 32.1,252.07 25.51,355.7 -23.96,-27.24 -27.02,-47.28 -43.69,-84.59 -14.51,-32.51 -26.42,-62.13 -38.89,-96.36 -23.39,-64.16 -51.59,-129.08 -77.98,-193.28l-503.68 -1082.19 -422.57 0.48c-15.69,78.45 -16.63,1911.75 -2.05,2043.22l189.59 5.63z"/>
   <path class="fil10" d="M7312.57 4907.33c284.91,-14.77 342.52,-207.77 169.43,452.04 -13.5,51.45 -27.72,106.64 -30.9,167.99l480.67 1.85c44.17,-228.63 85.73,-458.34 128.22,-692.88l113.31 -667.35c11.29,-40.08 -0.7,-14.01 17.81,-35.95 21.92,145.61 208.58,1243.66 253.84,1389.94l74.96 7.41c16.7,-88.8 49.61,-158.02 77.72,-239.79 18.11,-52.67 82.26,-180.75 81.03,-224.8 -51.75,-376.34 -140.55,-810.92 -221.3,-1189.27 -25.9,-121.35 -47.46,-278.55 -83.98,-394.34 -59.4,-10.11 -305.6,-14.68 -351.22,6.03 -27.09,68.36 -64.65,297.4 -81.57,385.12l-155.16 790.87c-16.86,95.25 -43.95,335.52 -74,404.54 -1.69,-2.09 -3.39,-8.53 -3.85,-7.09l-27.83 -179.14c-6.09,-67.49 -16,-136.72 -22.79,-203.6 -14.54,-143.21 -136.03,-1114.16 -157.24,-1197.09l-420.85 -4.31 233.7 1429.82z"/>
   <path class="fil10" d="M5983.71 5531.62l200.16 0.13c140.93,-2.55 596.39,16.75 697.89,-11.87l3.7 -373.59c-157.03,-35.85 -635.63,30.26 -758.76,-10.59l-1.59 -461.15 619.26 -6.12 3.11 -383.28c-115.68,-36.83 -507.67,23.49 -620.42,-13.39l-2.03 -401.51 733.37 -5.42 0.9 -385.05c-126.28,-9.94 -1095.21,-14.42 -1145.26,9.11 -12.4,32.95 -19.32,1882.48 -5.06,2033.81l274.73 8.92z"/>
   <path class="fil10" d="M8706.67 5000.3l164.54 -73.05c67.08,-24.99 91.3,-53.2 185.8,-46.85 8.74,14.06 6.07,8.89 15.53,27.21 -10.7,-47.11 89.75,-615.25 105.49,-711.57 36.09,-220.69 94.6,-499.83 111.7,-714.88l-392.29 -4.36c-27.98,137.17 -180.43,1320.44 -190.77,1523.5z"/>
   <path class="fil11" d="M8780.8 5529.77c139.2,5.97 91.65,19.51 179.04,-190.59 29.62,-71.2 75.03,-246.37 29.39,-318.47 -67.05,1 -113.24,162.62 -130.4,219.57 -27.69,91.89 -71.17,201.82 -78.03,289.49z"/>
  </g>
 </g>
</svg>
